# xmcd
#
# Track frame offsets: 
#        150
#        18511
#        36836
#        51020
#        71504
#        89233
#        108666
#        124949
#        140482
#        156390
#        175898
#        197056
#
# Disc length: 2886 seconds
#
# Revision: 0
# Processed by: cddbd v1.5.2PL0 Copyright (c) Steve Scherf et al.
# Submitted via: ExactAudioCopy v0.99pb3
#
DISCID=b20b440c
DTITLE=Paul Black - Blue Words
DYEAR=2009
DGENRE=Blues
TTITLE0=Talk To Me
TTITLE1=Slippin Away
TTITLE2=Jelly Fish
TTITLE3=Breathe
TTITLE4=Blue Words
TTITLE5=Little Mary
TTITLE6=Burn
TTITLE7=Who's In My House
TTITLE8=It's Alright
TTITLE9=Much 2 Much
TTITLE10=Fly
TTITLE11=Sister Sadness
EXTD=
EXTT0=
EXTT1=
EXTT2=
EXTT3=
EXTT4=
EXTT5=
EXTT6=
EXTT7=
EXTT8=
EXTT9=
EXTT10=
EXTT11=
PLAYORDER=
